<?xml version="1.0" standalone="no"?>
<!DOCTYPE svg PUBLIC "-//W3C//DTD SVG 20010904//EN"
 "http://www.w3.org/TR/2001/REC-SVG-20010904/DTD/svg10.dtd">
<svg version="1.0" xmlns="http://www.w3.org/2000/svg"
 width="400.000000pt" height="400.000000pt" viewBox="0 0 400.000000 400.000000"
 preserveAspectRatio="xMidYMid meet">

<g transform="translate(0.000000,400.000000) scale(0.100000,-0.100000)"
fill="#000000" stroke="none">
<path d="M1600 3026 l-134 -134 -165 -4 c-149 -3 -168 -5 -189 -23 -53 -45
-52 -36 -52 -591 l0 -516 39 -39 39 -39 862 0 862 0 39 39 39 39 0 516 c0 555
1 546 -52 591 -21 18 -40 20 -189 23 l-165 4 -134 134 -133 134 -267 0 -267 0
-133 -134z m669 -58 c33 -34 61 -66 61 -70 0 -4 -148 -8 -330 -8 -181 0 -330
4 -330 8 0 4 28 36 61 70 l61 62 208 0 208 0 61 -62z m-629 -217 c0 -6 -8 -16
-18 -23 -42 -31 -99 -122 -133 -214 -32 -82 -31 -241 1 -329 12 -33 24 -70 27
-82 3 -13 9 -23 13 -23 4 0 19 -17 32 -37 14 -21 67 -80 117 -131 50 -52 89
-98 86 -103 -9 -14 -508 -12 -539 2 -14 7 -30 25 -36 42 -6 18 -10 146 -10
327 0 337 -7 310 86 310 l55 0 -3 63 -3 62 -65 1 c-53 2 -66 5 -68 19 -7 30 9
86 29 106 18 18 34 19 224 19 122 0 205 -4 205 -9z m532 -30 c168 -80 255
-244 229 -430 -22 -165 -118 -275 -294 -337 -118 -42 -296 5 -396 105 -120
119 -153 329 -76 481 48 95 161 182 272 210 21 5 74 8 118 6 65 -3 93 -10 147
-35z m509 -131 c-1 -90 -4 -166 -6 -169 -5 -4 -188 186 -193 200 -2 5 -30 35
-63 66 -32 32 -59 61 -59 66 0 4 73 6 161 5 l162 -3 -2 -165z"/>
<path d="M1950 2611 c-95 -20 -172 -89 -204 -185 -18 -51 -18 -64 -7 -119 24
-120 110 -203 229 -222 l37 -6 -30 17 c-105 58 -145 176 -94 276 44 86 90 113
191 113 71 -1 80 -3 115 -31 21 -17 48 -48 60 -70 28 -48 30 -23 6 48 -44 125
-178 204 -303 179z"/>
<path d="M550 1336 c0 -88 3 -106 15 -106 15 0 21 32 17 92 -3 49 16 39 55
-27 29 -49 43 -65 61 -65 21 0 22 3 22 105 0 98 -1 105 -20 105 -18 0 -20 -7
-20 -65 0 -36 -3 -65 -7 -65 -5 1 -24 29 -44 63 -24 41 -44 63 -58 65 -20 3
-21 0 -21 -102z"/>
<path d="M1700 1425 c0 -8 9 -15 20 -15 11 0 20 7 20 15 0 8 -9 15 -20 15 -11
0 -20 -7 -20 -15z"/>
<path d="M2803 1425 c0 -8 9 -15 19 -15 10 0 18 7 18 15 0 8 -8 15 -18 15 -10
0 -19 -7 -19 -15z"/>
<path d="M2890 1335 c0 -98 1 -105 20 -105 19 0 20 7 20 105 0 98 -1 105 -20
105 -19 0 -20 -7 -20 -105z"/>
<path d="M3150 1337 l0 -103 63 -2 c59 -2 65 0 75 24 27 59 3 124 -47 124 -15
0 -32 -5 -39 -12 -9 -9 -12 -3 -12 30 0 35 -3 42 -20 42 -19 0 -20 -7 -20
-103z m104 7 c7 -8 10 -31 8 -49 -8 -63 -72 -55 -72 9 0 51 39 75 64 40z"/>
<path d="M3340 1335 c0 -98 1 -105 20 -105 19 0 20 7 20 105 0 98 -1 105 -20
105 -19 0 -20 -7 -20 -105z"/>
<path d="M2321 1377 c-29 -14 -39 -37 -17 -37 9 0 16 5 16 11 0 17 44 6 48
-12 2 -11 -7 -18 -29 -23 -18 -3 -38 -11 -46 -17 -35 -29 8 -86 52 -69 13 5
32 6 43 3 18 -4 20 0 21 55 1 82 -33 117 -88 89z m49 -97 c0 -10 -9 -24 -20
-30 -15 -8 -21 -6 -29 8 -7 13 -7 22 1 30 19 19 48 14 48 -8z"/>
<path d="M3023 1382 c-24 -4 -49 -29 -39 -39 4 -4 16 -2 26 5 29 18 50 15 50
-7 0 -13 -10 -21 -34 -25 -42 -8 -60 -28 -52 -60 6 -26 36 -39 57 -25 8 5 26
6 42 3 l27 -6 0 59 c0 78 -22 104 -77 95z m35 -104 c-3 -25 -34 -36 -51 -19
-14 14 9 41 35 41 14 0 19 -6 16 -22z"/>
<path d="M786 1365 c-22 -17 -26 -86 -5 -111 55 -67 160 -5 133 78 -4 13 -14
28 -23 35 -22 17 -82 16 -105 -2z m83 -19 c17 -20 10 -77 -11 -90 -26 -16 -52
4 -56 43 -4 36 12 61 38 61 10 0 23 -6 29 -14z"/>
<path d="M1050 1276 c0 -81 3 -105 14 -109 11 -4 16 4 18 31 3 37 3 37 45 34
38 -3 43 -1 57 27 22 42 20 74 -7 99 -25 24 -72 29 -81 10 -5 -10 -7 -10 -12
0 -3 6 -12 12 -20 12 -11 0 -14 -21 -14 -104z m98 72 c17 -17 15 -73 -3 -88
-22 -18 -48 -8 -59 22 -19 53 27 101 62 66z"/>
<path d="M1240 1305 c0 -67 2 -75 19 -75 13 0 18 5 15 18 -2 9 -1 37 4 62 6
33 13 45 24 44 9 -1 19 5 22 12 7 17 -25 19 -42 2 -9 -9 -12 -9 -12 0 0 7 -7
12 -15 12 -12 0 -15 -15 -15 -75z"/>
<path d="M1367 1362 c-17 -19 -22 -59 -11 -99 9 -33 67 -50 99 -29 14 9 25 21
25 26 0 13 -33 13 -46 0 -15 -15 -55 0 -52 19 2 12 17 17 56 19 51 3 52 4 46
30 -4 15 -13 33 -22 40 -23 18 -76 15 -95 -6z m73 -6 c0 -2 3 -11 6 -20 5 -13
-1 -16 -30 -16 -38 0 -44 8 -24 28 11 11 48 17 48 8z"/>
<path d="M1520 1374 c0 -4 12 -37 27 -75 35 -89 51 -90 86 -4 31 75 32 85 12
85 -8 0 -22 -21 -32 -50 -10 -27 -20 -50 -23 -50 -3 0 -13 23 -23 50 -10 29
-24 50 -32 50 -8 0 -15 -3 -15 -6z"/>
<path d="M1700 1305 c0 -68 2 -75 20 -75 18 0 20 7 20 75 0 68 -2 75 -20 75
-18 0 -20 -7 -20 -75z"/>
<path d="M1796 1358 c-21 -30 -20 -81 2 -108 22 -27 76 -30 100 -6 21 20 7 34
-18 18 -28 -17 -48 -15 -59 7 -14 26 -5 31 51 31 42 0 48 3 48 21 0 52 -94 80
-124 37z m68 -4 c27 -10 19 -34 -12 -34 -35 0 -45 9 -31 27 13 15 20 16 43 7z"/>
<path d="M1950 1371 c0 -5 9 -39 20 -75 16 -51 25 -66 40 -66 14 0 22 11 31
43 14 49 29 70 29 40 0 -38 21 -83 40 -83 12 0 22 16 35 58 28 93 28 92 11 92
-10 0 -20 -16 -27 -45 -11 -44 -29 -70 -29 -43 0 7 -5 30 -11 51 -7 26 -16 37
-29 37 -19 0 -23 -8 -35 -67 -7 -35 -25 -45 -25 -14 0 32 -22 81 -36 81 -8 0
-14 -4 -14 -9z"/>
<path d="M2450 1378 c0 -2 9 -28 20 -58 12 -30 23 -63 27 -72 11 -37 41 -20
61 35 33 90 35 97 18 97 -8 0 -21 -20 -31 -50 -9 -27 -20 -50 -23 -50 -4 0
-14 21 -22 47 -10 29 -23 49 -33 51 -9 2 -17 2 -17 0z"/>
<path d="M2637 1365 c-8 -20 9 -28 31 -14 22 14 56 5 50 -13 -3 -7 -22 -18
-43 -24 -53 -14 -69 -49 -35 -76 14 -11 30 -16 39 -12 9 4 30 7 46 6 l30 -2
-3 63 c-2 34 -9 68 -14 75 -15 17 -94 16 -101 -3z m83 -78 c0 -19 -21 -37 -42
-37 -21 0 -25 35 -5 43 23 10 47 7 47 -6z"/>
<path d="M2809 1328 c0 -29 -2 -63 -3 -75 -2 -17 3 -23 16 -23 16 0 18 9 18
75 0 60 -3 75 -15 75 -11 0 -15 -13 -16 -52z"/>
<path d="M3435 1356 c-19 -28 -17 -102 2 -99 7 2 10 -3 7 -11 -12 -31 82 -27
101 4 11 18 -4 25 -25 12 -26 -16 -35 -15 -54 4 -24 24 -10 34 46 34 49 0 50
0 43 27 -8 35 -32 52 -72 53 -24 0 -37 -7 -48 -24z m69 -2 c30 -12 18 -34 -19
-34 -24 0 -35 5 -35 14 0 21 27 31 54 20z"/>
</g>
</svg>
